<?xml version="1.0" encoding="utf-8"?>
<!-- Generator: Adobe Illustrator 19.0.0, SVG Export Plug-In . SVG Version: 6.00 Build 0)  -->
<svg version="1.1" id="图层_1" xmlns="http://www.w3.org/2000/svg" xmlns:xlink="http://www.w3.org/1999/xlink" x="0px" y="0px"
	 viewBox="0 0 36 36" style="enable-background:new 0 0 36 36;" xml:space="preserve">
<style type="text/css">
	.st0{fill:#D7000F;}
</style>
<path id="XMLID_16_" class="st0" d="M21.4,11.6v20c1-0.3,1.9-0.6,2.8-1V7.7c-0.3,0.1-0.9,0.4-1.4,0.8C21.9,9.3,21.4,10.2,21.4,11.6
	 M13.2,8.5c-0.5-0.4-1.1-0.7-1.4-0.8v22.8c0.9,0.4,1.8,0.8,2.8,1v-20C14.6,10.2,14.1,9.3,13.2,8.5"/>
<path id="XMLID_5_" class="st0" d="M23.6,5C21.9,4.2,20,3.8,18,3.8s-3.9,0.4-5.6,1.1c-0.3,0.2-0.6,0.4-0.6,0.8c0,0.8,1,0.6,2.3,1.6
	c1.2,1,1.8,2.3,1.8,3.8v20.6c0.7,0.1,1.3,0.1,2,0.2c0.7,0,1.4-0.1,2-0.2V11.2c0-1.5,0.6-2.9,1.8-3.8c1.3-1,2.3-0.9,2.3-1.6
	C24.2,5.4,23.9,5.1,23.6,5"/>
<path id="XMLID_12_" class="st0" d="M18,33C9.7,33,2.9,26.2,2.9,17.9S9.7,2.8,18,2.8c8.3,0,15.1,6.8,15.1,15.1S26.4,33,18,33
	 M18,1.4C8.9,1.4,1.5,8.8,1.5,17.9S8.9,34.4,18,34.4c9.1,0,16.5-7.4,16.5-16.5C34.5,8.8,27.1,1.4,18,1.4"/>
<path id="XMLID_9_" class="st0" d="M3.9,17.9c0,5,2.6,9.4,6.6,11.9V19c-1.6,0.1-2.2,1-2.4,1.4C8,20.7,7.9,21,7.6,21
	c-0.5,0-0.9-1.4-0.9-3c0-1.7,0.4-3,0.9-3c0.3,0,0.4,0.3,0.5,0.6C8.3,16,8.9,17,10.5,17V6C6.5,8.5,3.9,12.9,3.9,17.9 M29.8,20.4
	c-0.2,0.3-0.3,0.6-0.5,0.6c-0.5,0-0.9-1.4-0.9-3c0-1.7,0.4-3,0.9-3c0.3,0,0.4,0.3,0.5,0.6C30,16,30.6,17,32.1,17
	c-0.3-4.7-2.8-8.7-6.5-11v23.8c3.6-2.3,6.1-6.3,6.5-10.8C30.5,19.1,30,20,29.8,20.4"/>
</svg>
