<?xml version="1.0" encoding="utf-8"?>
<!-- Generator: Adobe Illustrator 19.0.0, SVG Export Plug-In . SVG Version: 6.00 Build 0)  -->
<svg version="1.1" id="图层_1" xmlns="http://www.w3.org/2000/svg" xmlns:xlink="http://www.w3.org/1999/xlink" x="0px" y="0px"
	 viewBox="0 0 36 36" style="enable-background:new 0 0 36 36;" xml:space="preserve">
<style type="text/css">
	.st0{fill-rule:evenodd;clip-rule:evenodd;fill:#B81C22;}
</style>
<path id="XMLID_2_" class="st0" d="M17.9,1.6c0,0,7.2-0.6,12.8,5.9c0,0,3.6,4,3.8,9.8c0,0,0.3,4.4-1.7,8.1c-2,3.7-4.2,5.7-7.8,7.5
	c-3.6,1.8-9.4,2-13.2,0.3c-3.8-1.8-6.2-3.6-8.4-7.6c0,0-3-5.1-1.6-11.1c0,0,0.4-3.5,3.6-7.4C5.5,7.1,10.2,1.4,17.9,1.6L17.9,1.6z
	 M19.7,5.3c0,0,3.8,0.3,6.9,3.1c3.1,2.8,3.9,5.7,4.2,7.2c0.3,1.5,0.6,5.9-1.9,9.6c-2.4,3.7-7.1,5.4-9.2,5.6v-6h2.9
	c0,0,3-0.6,3.2-3.8v-6.4c0,0-0.5-3.2-3.9-3.3h-2.2V5.3L19.7,5.3z M16.3,5.3v6.1h-2.6c0,0-3.5,0.2-3.6,4V21c0,0,0.1,3.4,3.7,3.8h2.5
	v6c0,0-6-0.3-9.3-6.1c0,0-2.9-4.1-1.7-9.2c1.2-5.1,4-7.1,4.5-7.6C10.3,7.3,13.9,5.2,16.3,5.3L16.3,5.3z M14.1,14.8h7.5
	c0,0,0.6-0.1,0.7,0.6v5.2c0,0,0.2,0.8-0.5,0.7h-7.6c0,0-0.6,0.2-0.7-0.5v-5.4C13.5,15.3,13.6,14.8,14.1,14.8L14.1,14.8z"/>
</svg>
