<?xml version="1.0" encoding="utf-8"?>
<!-- Generator: Adobe Illustrator 19.0.0, SVG Export Plug-In . SVG Version: 6.00 Build 0)  -->
<svg version="1.1" id="图层_1" xmlns="http://www.w3.org/2000/svg" xmlns:xlink="http://www.w3.org/1999/xlink" x="0px" y="0px"
	 viewBox="0 0 36 36" style="enable-background:new 0 0 36 36;" xml:space="preserve">
<style type="text/css">
	.st0{fill-rule:evenodd;clip-rule:evenodd;fill:#1D2087;}
</style>
<path id="XMLID_2_" class="st0" d="M27.8,26.4c-2,0.1-3.8,0.1-5.8,0.2c-1.3,5.3-11.6,3.9-10.5-2.9c0.6-4,6-5.8,9.4-2.7
	c0.7,0.8,1.1,1.6,1.3,3.3c1.7-0.1,3.9-0.1,5.6-0.2c0.1-8.6-9.7-13-17.1-8.8c-7,4-6.2,16.2,1.2,19.4c0,0.1,0,0.1,0,0.2
	c-4-0.1-8.4-3.2-9.4-6.9L2.5,8.1c3.2-2.2,6.7-4.8,9.9-7c0.1,0.1,0.3,0.1,0.4,0.2c-0.2,3-0.1,7.9,0.1,11.6c2-1.9,3.4-4,6.8-4.7
	C22,7.8,24.1,8,25.4,8.5c10.1,3.5,10.7,16.5,2.2,21c-0.2,0-0.6,0.4-0.9,0.4c0-0.1,0.2-0.3,0.4-0.6C27.3,28.4,27.5,27.4,27.8,26.4
	L27.8,26.4z"/>
</svg>
