<?xml version="1.0" encoding="utf-8"?>
<!-- Generator: Adobe Illustrator 19.0.0, SVG Export Plug-In . SVG Version: 6.00 Build 0)  -->
<svg version="1.1" id="图层_1" xmlns="http://www.w3.org/2000/svg" xmlns:xlink="http://www.w3.org/1999/xlink" x="0px" y="0px"
	 viewBox="0 0 36 36" style="enable-background:new 0 0 36 36;" xml:space="preserve">
<style type="text/css">
	.st0{fill:#004186;}
</style>
<path id="XMLID_2_" class="st0" d="M34.9,18.7c0-4.3-5.9-7.8-13.1-7.8c-5.8,0-10.7,2.3-12.4,5.4v0c-0.2,0.3-0.2,0.6-0.2,0.9
	c0,0.8,0.5,1.5,1.3,1.9l6.6,3.8c0.3,0.2,0.8,0.3,1.2,0.3c0.4,0,0.9-0.1,1.2-0.3l6.3-3.6c0.4-0.2,0.7-0.6,0.7-1.1
	c0-0.4-0.3-0.8-0.7-1l-2.3-1.4l-5.2,3l-3.9-2.3c1.5-1.4,4.3-2.3,7.6-2.3c4.8,0,8.8,2.1,8.8,4.6c-0.1,3.9-5.9,7-12.9,6.8
	c-7-0.2-12.6-3.5-12.5-7.5h0c0-5.2,6.8-9.3,15.2-9.2c0.7,0,1.5,0,2.2,0.1c-1.7-0.6-3.8-1-6.2-1c-1.9,0-3.6,0.2-5.1,0.7l0,0
	c-6,1.7-10.3,5.5-10.3,10c0,6,7.6,10.9,16.9,10.9C27.3,29.6,34.9,24.7,34.9,18.7L34.9,18.7L34.9,18.7z"/>
</svg>
