<?xml version="1.0" encoding="utf-8"?>
<!-- Generator: Adobe Illustrator 19.0.0, SVG Export Plug-In . SVG Version: 6.00 Build 0)  -->
<svg version="1.1" id="图层_1" xmlns="http://www.w3.org/2000/svg" xmlns:xlink="http://www.w3.org/1999/xlink" x="0px" y="0px"
	 viewBox="0 0 36 36" style="enable-background:new 0 0 36 36;" xml:space="preserve">
<style type="text/css">
	.st0{fill-rule:evenodd;clip-rule:evenodd;fill:#009174;}
</style>
<path id="XMLID_2_" class="st0" d="M16.5,2.2l0.7-0.1H18h0.7l0.7,0.1v9.5v0.3L19.3,12l-0.1,0.1h-0.1l-0.1,0.1l-0.2,0.1H17l-0.2-0.1
	l-0.1-0.1h-0.1V12l-0.1-0.1l-0.1-0.3V2.2L16.5,2.2z M23.2,17.9v4.5v0.2l-0.1,0.1l-0.1,0.1L23,23h-0.1l-0.1,0.1l-0.3,0.1h-2.8v7.5
	l0.6-0.1l0.6-0.1l0.5-0.2l0.5-0.1l0.3-0.1l0.3-0.1l0.5-0.2l0.5-0.3l0.5-0.3l0.5-0.3l0.5-0.3l0.4-0.3l0.5-0.3l0.9-0.7l0.4-0.4
	l0.3-0.4l0.4-0.5l0.3-0.4l0.3-0.5l0.3-0.5l0.3-0.5l0.3-0.5l0.3-0.5l0.2-0.5l0.3-1.1l0.2-0.5l0.1-0.6l0.1-0.5l0.1-0.6l0.1-1.2
	l-0.1-0.9l-0.1-0.5v-0.5l-0.2-0.9l-0.3-0.9L30,13.9l-0.1-0.4l-0.3-0.9L29,11.8L28.6,11l-0.5-0.7l-0.6-0.7l-0.6-0.7l-0.7-0.6
	l-0.7-0.5l-0.7-0.5L24,6.8l-0.8-0.4v10.7v0.2l-0.1,0.1l-0.1,0.1L23,17.7l-0.1,0.1h-0.1l-0.3,0.1h-3.7h-0.2l-0.1,0.1l-0.1,0.1v-4.6
	l0.1-0.1l0.1-0.1l0.1-0.1h0.1h1.7l0.3-0.1l0.2-0.1l0.1-0.1l0.1-0.2V5.7V3.2V2.5l1.3,0.4l0.7,0.2l0.6,0.2l0.7,0.3l0.6,0.3l0.6,0.3
	l0.5,0.3l0.6,0.4l0.5,0.3l0.5,0.4l0.5,0.5l0.5,0.5L29.4,7l0.9,0.9l0.4,0.5L31,9l0.3,0.6l0.3,0.5l0.7,1.2l0.3,0.6l0.2,0.7l0.4,1.3
	l0.2,0.7l0.1,0.7l0.1,0.7l0.1,0.7v0.7V18v0.8l-0.1,0.8l-0.1,0.8l-0.1,0.8l-0.2,0.7l-0.2,0.8l-0.3,0.7l-0.3,0.7l-0.3,0.7l-0.3,0.7
	l-0.4,0.7l-0.4,0.7l-0.5,0.6l-0.5,0.6l-0.5,0.6l-0.5,0.5l-0.5,0.5L28,30.2l-0.6,0.5l-0.6,0.5l-0.7,0.4l-0.7,0.4l-0.7,0.3l-0.7,0.3
	l-0.7,0.3l-0.8,0.3l-0.7,0.2l-0.7,0.2l-0.8,0.1l-0.8,0.1l-0.8,0.1L18,33.8l-0.8-0.1l-0.8-0.1l-0.8-0.1l-0.8-0.1L14,33.3l-0.7-0.2
	l-0.7-0.3l-0.7-0.3l-0.7-0.3l-0.7-0.3l-0.7-0.4l-0.7-0.4l-0.6-0.5l-0.6-0.5l-0.6-0.5l-0.5-0.5l-0.5-0.5l-0.5-0.6l-0.5-0.6l-0.4-0.6
	l-0.4-0.7l-0.4-0.7l-0.3-0.7l-0.3-0.7l-0.3-0.7l-0.3-0.7l-0.2-0.8l-0.2-0.7l-0.1-0.8l-0.1-0.8l-0.1-0.8V18v-0.7l0.1-0.7l0.1-0.7
	l0.1-0.7l0.1-0.7l0.1-0.7l0.4-1.3l0.3-0.7l0.3-0.6l0.3-0.6l0.3-0.6l0.3-0.5L4.9,9l0.4-0.5l0.4-0.5l0.4-0.5L6.6,7l0.5-0.5l0.5-0.5
	l1.1-0.8l0.5-0.4l0.5-0.4l0.6-0.3l0.6-0.3l0.6-0.3l0.6-0.3l0.6-0.2l0.7-0.2L14,2.7l0.7-0.2v3.3v6.9l0.1,0.1l0.1,0.1l0.2,0.1l0.2,0.1
	l0.2,0.1H17h0.1l0.1,0.1l0.1,0.1v0.1v4.6l-0.1-0.1h-0.1h-3.8l-0.3-0.1H13l-0.1-0.1l-0.1-0.1l-0.1-0.1v-0.1l-0.1-0.2V6.4l-0.8,0.4
	l-0.7,0.5l-0.7,0.5L9.7,8.3L9,8.9L8.4,9.6l-0.5,0.7l-0.5,0.7l-0.5,0.7l-0.4,0.8L6.3,13l-0.1,0.5l-0.3,0.9l-0.2,0.9l-0.2,0.9
	l-0.1,0.5v0.5L5.3,18v0.6l0.1,0.6l0.1,0.5l0.1,0.6l0.1,0.6l0.1,0.5L5.9,22L6,22.3l0.1,0.3l0.2,0.5l0.2,0.5l0.5,1l0.7,0.9l0.3,0.5
	l0.3,0.5l0.4,0.4l0.4,0.4l0.8,0.7l0.5,0.3l0.5,0.3l0.9,0.5l0.5,0.3l0.5,0.3l0.5,0.2l0.5,0.2l0.6,0.1l0.5,0.2l0.5,0.1l0.6,0.1v-7.5
	h-2.8l-0.3-0.1L13.1,23h-0.1l-0.1-0.1l-0.1-0.1v-0.1l-0.1-0.2v-4.5l0.1,0.1l0.1,0.1l0.2,0.1l0.2,0.1l0.2,0.1H17h0.1l0.1,0.1l0.1,0.1
	v0.1v4.4h1v-4.4l0.1-0.1l0.1-0.1l0.1-0.1h0.1h3.7l0.2-0.1l0.2-0.1l0.2-0.1L23.2,17.9L23.2,17.9z"/>
</svg>
