<?xml version="1.0" encoding="utf-8"?>
<!-- Generator: Adobe Illustrator 19.0.0, SVG Export Plug-In . SVG Version: 6.00 Build 0)  -->
<svg version="1.1" id="图层_1" xmlns="http://www.w3.org/2000/svg" xmlns:xlink="http://www.w3.org/1999/xlink" x="0px" y="0px"
	 viewBox="0 0 36 36" style="enable-background:new 0 0 36 36;" xml:space="preserve">
<style type="text/css">
	.st0{fill:#E3131B;}
</style>
<polygon id="XMLID_2_" class="st0" points="33.9,22.5 34,21.9 34.1,21.4 34.2,20.8 34.3,20.3 34.4,20 34.4,19.7 34.4,19.4 
	34.5,19.1 34.5,18.8 34.5,18.5 34.5,18.3 34.5,18 34.5,17.5 34.5,17.1 34.5,16.7 34.4,16.3 34.4,15.9 34.3,15.5 34.3,15.1 
	34.2,14.7 34.1,14.3 34,13.9 33.9,13.5 33.8,13.1 33.7,12.8 33.6,12.4 33.4,12 33.3,11.7 33.1,11.3 33,10.9 32.8,10.6 32.6,10.2 
	32.4,9.9 32.2,9.5 32,9.2 31.8,8.9 31.5,8.5 31.3,8.2 31,7.9 30.8,7.6 30.5,7.3 30.2,7 30,6.6 29.7,6.3 29.4,6.1 29,5.8 28.7,5.5 
	28.4,5.2 28.1,5 27.8,4.7 27.4,4.5 27.1,4.2 26.8,4 26.4,3.8 26.1,3.6 25.7,3.4 25.4,3.2 25,3 24.7,2.9 24.3,2.7 23.9,2.6 23.6,2.4 
	23.2,2.3 22.8,2.2 22.4,2.1 22,2 21.7,1.9 21.3,1.8 20.9,1.7 20.5,1.7 20.1,1.6 19.7,1.6 19.2,1.5 18.8,1.5 18.4,1.5 18,1.5 
	17.6,1.5 17.2,1.5 16.7,1.5 16.3,1.6 15.9,1.6 15.5,1.7 15.1,1.7 14.7,1.8 14.3,1.9 13.9,2 13.5,2.1 13.2,2.2 12.8,2.3 12.4,2.4 
	12,2.6 11.7,2.7 11.3,2.9 11,3 10.6,3.2 10.2,3.4 9.9,3.6 9.6,3.8 9.2,4 8.9,4.2 8.6,4.5 8.2,4.7 7.9,5 7.6,5.2 7.3,5.5 7,5.8 
	6.6,6.1 6.3,6.3 6,6.6 5.8,7 5.5,7.3 5.2,7.6 4.9,7.9 4.7,8.2 4.5,8.5 4.2,8.9 4,9.2 3.8,9.5 3.6,9.9 3.4,10.2 3.2,10.6 3,10.9 
	2.9,11.3 2.7,11.7 2.6,12 2.4,12.4 2.3,12.8 2.2,13.1 2.1,13.5 2,13.9 1.9,14.3 1.8,14.7 1.7,15.1 1.7,15.5 1.6,15.9 1.6,16.3 
	1.5,16.7 1.5,17.1 1.5,17.5 1.5,18 1.5,18.4 1.5,18.8 1.5,19.2 1.6,19.6 1.6,20 1.7,20.5 1.7,20.9 1.8,21.2 1.9,21.6 2,22 2.1,22.4 
	2.2,22.8 2.3,23.2 2.4,23.6 2.6,23.9 2.7,24.3 2.9,24.7 3,25 3.2,25.4 3.4,25.7 3.6,26.1 3.8,26.4 4,26.8 4.2,27.1 4.5,27.4 
	4.7,27.8 4.9,28.1 5.2,28.4 5.5,28.7 5.8,29 6,29.4 6.3,29.7 6.6,29.9 7,30.2 7.3,30.5 7.6,30.8 7.9,31 8.2,31.3 8.6,31.5 8.9,31.8 
	9.2,32 9.6,32.2 9.9,32.4 10.2,32.6 10.6,32.8 11,33 11.3,33.1 11.7,33.3 12,33.4 12.4,33.6 12.8,33.7 13.2,33.8 13.5,33.9 13.9,34 
	14.3,34.1 14.7,34.2 15.1,34.3 15.5,34.3 15.9,34.4 16.3,34.4 16.7,34.5 17.2,34.5 17.6,34.5 18,34.5 18.6,34.5 19.2,34.5 
	19.8,34.4 20.3,34.4 20.9,34.3 21.4,34.2 22,34.1 22.5,33.9 23,33.8 23.6,33.6 24.1,33.4 24.6,33.2 25.1,33 25.6,32.7 26.1,32.5 
	26.5,32.2 26.9,32 27.2,31.8 27.5,31.6 27.7,31.4 28,31.2 28.3,31 28.5,30.8 28.8,30.5 29,30.3 29.2,30.1 29.4,29.9 29.6,29.7 
	29.8,29.4 30,29.2 30.1,29 30.3,28.8 30.4,28.5 30.5,28.3 30.6,28.1 30.7,27.8 30.8,27.6 30.9,27.3 31,27.1 31,26.8 31.1,26.6 
	31.1,26.3 31.1,26.1 31.1,25.8 31.1,25.6 31.1,25.3 31.1,25.1 31,24.8 31,24.6 30.9,24.4 30.9,24.2 30.8,24 30.7,23.8 30.6,23.6 
	30.5,23.4 30.4,23.2 30.3,23 30.2,22.8 30.1,22.6 30,22.5 29.8,22.3 29.7,22.1 29.5,22 29.4,21.8 29.2,21.7 29,21.5 28.8,21.4 
	28.6,21.2 28.4,21.1 28.2,21 28,20.9 27.8,20.7 27.5,20.6 27.3,20.5 27,20.4 26.8,20.3 26.5,20.2 26.2,20.1 25.9,20 25.7,19.9 
	24.9,19.7 25.1,19.5 25.4,19.4 25.6,19.2 25.8,19.1 26,18.9 26.2,18.7 26.3,18.5 26.5,18.3 26.6,18.1 26.7,17.9 26.9,17.7 27,17.5 
	27,17.3 27.1,17.1 27.2,16.8 27.2,16.6 27.2,16.3 27.2,16.1 27.2,15.8 27.2,15.5 27.2,15.3 27.1,15 27,14.7 26.9,14.5 26.8,14.2 
	26.7,14 26.5,13.7 26.3,13.5 26.1,13.2 25.9,13 25.6,12.8 25.4,12.5 25.1,12.3 24.8,12.1 24.5,11.9 24.2,11.6 23.9,11.5 23.6,11.3 
	23.3,11.1 22.9,11 22.6,10.8 22.2,10.7 21.8,10.6 21.5,10.4 21.1,10.3 20.7,10.2 20.2,10.2 19.8,10.1 19.3,10 18.9,10 18.4,9.9 
	17.8,9.9 17.3,9.8 16.8,9.8 16.3,9.8 15.7,9.8 15.2,9.8 14.6,9.8 14.1,9.8 13.5,9.8 12.9,9.8 12.3,9.8 11.7,9.9 11.1,9.9 11.1,15.1 
	11.6,15.1 12.1,15 12.6,15 13.1,14.9 13.6,14.9 14.1,14.9 14.5,14.9 15,14.9 15.5,14.9 16,14.9 16.5,14.9 17,15 17.5,15 18,15 
	18.6,15.1 19.1,15.2 19.5,15.2 19.9,15.3 20.2,15.4 20.6,15.5 20.9,15.6 21.2,15.7 21.5,15.8 21.7,16 21.8,16 21.9,16.1 22,16.2 
	22.1,16.3 22.2,16.3 22.3,16.4 22.4,16.5 22.4,16.6 22.5,16.7 22.5,16.8 22.6,16.8 22.6,16.9 22.7,17 22.7,17.1 22.7,17.2 
	22.7,17.4 22.7,17.4 22.7,17.5 22.7,17.6 22.7,17.7 22.6,17.9 22.5,18.2 22.4,18.3 22.3,18.4 22.3,18.5 22.1,18.6 22,18.6 
	21.9,18.7 21.8,18.7 21.6,18.8 21.5,18.8 21.3,18.8 21.1,18.9 21,18.9 20.8,18.9 20.6,18.8 20.3,18.8 20.1,18.8 19.5,18.7 
	18.9,18.6 18.3,18.6 17.7,18.6 17.2,18.5 16.6,18.5 16,18.5 15.5,18.5 14.9,18.5 14.3,18.5 13.8,18.5 13.2,18.6 12.7,18.6 
	12.2,18.6 11.7,18.7 11.1,18.8 11.1,24.1 11.9,24 12.6,23.9 13.3,23.9 14,23.8 14.7,23.8 15.3,23.8 16,23.7 16.6,23.7 17.3,23.8 
	17.9,23.8 18.5,23.8 19.1,23.9 19.7,23.9 20.3,24 20.8,24.1 21.4,24.2 21.8,24.3 22.2,24.4 22.6,24.5 22.9,24.6 23.3,24.7 
	23.6,24.9 23.7,24.9 23.8,25 24,25.1 24.1,25.2 24.2,25.2 24.3,25.3 24.4,25.4 24.5,25.5 24.6,25.6 24.7,25.7 24.7,25.8 24.8,25.9 
	24.9,26 24.9,26.1 25,26.2 25,26.3 25,26.4 25.1,26.5 25.1,26.6 25.1,26.7 25.1,26.8 25.1,26.9 25.1,27 25.1,27.1 25.1,27.2 
	25.1,27.3 25,27.4 25,27.5 25,27.6 24.9,27.7 24.9,27.8 24.8,27.9 24.7,28.1 24.5,28.3 24.4,28.4 24.3,28.5 24.2,28.6 24,28.7 
	23.9,28.8 23.8,28.9 23.6,29 23.5,29.1 23.3,29.2 23.2,29.3 23,29.4 22.8,29.4 22.6,29.5 22.4,29.6 22.3,29.6 22,29.7 21.8,29.8 
	21.6,29.8 21.4,29.9 21.2,29.9 20.7,30 20.2,30.1 19.7,30.1 19.2,30.2 18.6,30.2 18,30.2 17.7,30.2 17.4,30.2 17.1,30.1 16.8,30.1 
	16.5,30.1 16.2,30.1 15.9,30 15.6,30 15.3,29.9 15,29.8 14.7,29.8 14.4,29.7 14.2,29.6 13.9,29.5 13.6,29.4 13.3,29.3 13.1,29.2 
	12.8,29.1 12.5,28.9 12.3,28.8 12,28.6 11.8,28.5 11.5,28.3 11.3,28.2 11,28 10.8,27.8 10.5,27.7 10.3,27.5 10.1,27.3 9.8,27.1 
	9.6,26.8 9.4,26.6 9.2,26.4 8.9,26.2 8.7,25.9 8.5,25.7 8.3,25.5 8.2,25.2 8,25 7.8,24.8 7.6,24.5 7.5,24.3 7.3,24 7.2,23.7 
	7.1,23.5 6.9,23.2 6.8,23 6.7,22.7 6.6,22.4 6.5,22.1 6.4,21.9 6.3,21.6 6.2,21.3 6.1,21 6.1,20.7 6,20.4 6,20.1 5.9,19.8 5.9,19.5 
	5.8,19.2 5.8,18.9 5.8,18.6 5.8,18.3 5.8,18 5.8,17.7 5.8,17.4 5.8,17.1 5.8,16.8 5.9,16.5 5.9,16.2 6,15.9 6,15.6 6.1,15.3 6.1,15 
	6.2,14.7 6.3,14.4 6.4,14.1 6.5,13.9 6.6,13.6 6.7,13.3 6.8,13.1 6.9,12.8 7.1,12.5 7.2,12.3 7.3,12 7.5,11.8 7.6,11.5 7.8,11.3 
	8,11 8.2,10.8 8.3,10.5 8.5,10.3 8.7,10.1 8.9,9.8 9.2,9.6 9.4,9.4 9.6,9.2 9.8,8.9 10.1,8.7 10.3,8.5 10.5,8.3 10.8,8.2 11,8 
	11.3,7.8 11.5,7.7 11.8,7.5 12,7.3 12.3,7.2 12.5,7.1 12.8,6.9 13.1,6.8 13.3,6.7 13.6,6.6 13.9,6.5 14.2,6.4 14.4,6.3 14.7,6.2 
	15,6.1 15.3,6.1 15.6,6 15.9,6 16.2,5.9 16.5,5.9 16.8,5.8 17.1,5.8 17.4,5.8 17.7,5.8 18,5.8 18.3,5.8 18.7,5.8 19,5.8 19.3,5.8 
	19.6,5.9 19.9,5.9 20.2,6 20.5,6 20.7,6.1 21,6.1 21.3,6.2 21.6,6.3 21.9,6.4 22.2,6.5 22.4,6.6 22.7,6.7 23,6.8 23.2,6.9 23.5,7.1 
	23.8,7.2 24,7.3 24.3,7.5 24.5,7.7 24.8,7.8 25,8 25.3,8.2 25.5,8.3 25.7,8.5 26,8.7 26.2,8.9 26.4,9.2 26.6,9.4 26.8,9.6 27.1,9.8 
	27.3,10 27.5,10.3 27.7,10.5 27.8,10.8 28,11 28.2,11.2 28.4,11.5 28.5,11.7 28.7,12 28.8,12.3 28.9,12.5 29.1,12.8 29.2,13 
	29.3,13.3 29.4,13.6 29.5,13.9 29.6,14.1 29.7,14.4 29.8,14.7 29.9,15 29.9,15.3 30,15.6 30,15.9 30.1,16.2 30.1,16.5 30.1,16.8 
	30.2,17.1 30.2,17.4 30.2,17.7 30.2,18 30.1,19.3 30.4,19.5 30.7,19.6 30.9,19.8 31.2,20 31.4,20.2 31.7,20.4 31.9,20.5 32.1,20.7 
	32.4,20.9 32.6,21.1 32.8,21.3 33,21.6 33.2,21.8 33.4,22 33.7,22.3 "/>
</svg>
