<?xml version="1.0" encoding="utf-8"?>
<!-- Generator: Adobe Illustrator 19.0.0, SVG Export Plug-In . SVG Version: 6.00 Build 0)  -->
<svg version="1.1" id="图层_1" xmlns="http://www.w3.org/2000/svg" xmlns:xlink="http://www.w3.org/1999/xlink" x="0px" y="0px"
	 viewBox="0 0 36 36" style="enable-background:new 0 0 36 36;" xml:space="preserve">
<style type="text/css">
	.st0{fill-rule:evenodd;clip-rule:evenodd;fill:#E50012;}
	.st1{fill-rule:evenodd;clip-rule:evenodd;fill:#DBDCDC;}
</style>
<path id="XMLID_3_" class="st0" d="M32.8,8.9l-1.2-1.5c0,0-4.5,0.7-4.4-1.8c0,0,0.3-1.9-3-1.2c0,0-0.8-0.7-0.7-1.2
	c0,0,0.2-1.1-3.3-0.5c0,0-5.3,0.6-11,7.2c0,0-5.8,4.8-5.8-0.1c0,0-3.2,3.2-1.5,5.8c0,0,1.9,2.7,5.6,0.5c0,0-1.2,8.9,4.7,13.6
	c0,0,6.2,5.7,13.3,3.7c0,0,5.9-1.2,8.2-7.2c0,0-1.1,1.1-1.5,1c0,0,1.6-1.9,1.7-2.8c0,0,0-1.2-1,0.6c0,0,0.2-1.1-0.4-0.6
	c0,0-3.1,3.6-4.5,3.8c0,0-9.9,5.9-14.4-5.9c0,0-1.9-5.6,2.6-9.8c4.6-4.2,9-3.8,13.1-0.7c0,0,2.1-2.4,3-1.9
	C32.4,10,33.2,9.6,32.8,8.9L32.8,8.9z"/>
<polygon id="XMLID_2_" class="st1" points="19,16 28.8,15.9 28.8,23.4 19,23.4 19,16 "/>
</svg>
