<?xml version="1.0" encoding="utf-8"?>
<!-- Generator: Adobe Illustrator 19.0.0, SVG Export Plug-In . SVG Version: 6.00 Build 0)  -->
<svg version="1.1" id="图层_1" xmlns="http://www.w3.org/2000/svg" xmlns:xlink="http://www.w3.org/1999/xlink" x="0px" y="0px"
	 viewBox="0 0 36 36" style="enable-background:new 0 0 36 36;" xml:space="preserve">
<style type="text/css">
	.st0{fill-rule:evenodd;clip-rule:evenodd;fill:#E50012;}
</style>
<path id="XMLID_2_" class="st0" d="M5.2,18.2l0.1,1.3l0.1,1.2l0.3,1.3L6.1,23l0.5,1.2l0.6,1l0.3,0.5L8,26.1l0.7,1l1,0.7l1,0.7
	l1.1,0.6l1.1,0.5l1.2,0.4l1.2,0.3l0.6,0.1l0.6,0.1h0.6h0.6h1.3l1.2-0.2l1.3-0.3l1.1-0.4l1.2-0.5l1-0.6l0.5-0.3l0.4-0.4l1-0.7l0.7-1
	l0.7-1l0.6-1l0.5-1.2l0.4-1.1l0.3-1.3l0.1-0.5l0.1-0.6v-0.6v-0.6v-1.3l-0.2-1.3l-0.3-1.2l-0.4-1.2l-0.5-1.1l-0.6-1.1l-0.3-0.5
	l-0.4-0.4l-0.7-0.9l-1-0.9l-1-0.7l-1-0.6l-1.2-0.5l-1.1-0.4l-1.3-0.3l-0.5-0.1h-0.6l-0.6-0.1h-0.6l-1.3,0.1l-1.3,0.1L14,6.1
	l-1.2,0.4l-1.1,0.5l-1.1,0.6L10.2,8L9.8,8.4l-1,0.9L8,10.2l-0.7,1l-0.6,1.1l-0.5,1.1l-0.4,1.2l-0.3,1.2l-0.1,0.6v0.6l-0.1,0.6V18.2
	L5.2,18.2z M2.1,18.2l0.1-1.6l0.1-0.9L2.4,15l0.4-1.5L3,12.7l0.3-0.6l0.3-0.7L4,10.7l0.7-1.3l0.4-0.6l0.5-0.6l1-1.1l0.5-0.5l0.5-0.4
	l0.6-0.5L9,5.1l0.6-0.4l0.6-0.3l1.4-0.6l1.4-0.5L13.8,3l0.7-0.2l0.7-0.1l0.9-0.1l1.6-0.1l1.6,0.1l0.7,0.1l0.7,0.1l1.5,0.4l0.7,0.2
	l0.7,0.3l0.6,0.3l0.6,0.3l1.4,0.7l0.5,0.4l0.6,0.5l1.1,1l0.5,0.5l0.5,0.5l0.4,0.6l0.4,0.6l0.4,0.6l0.3,0.6l0.7,1.4l0.5,1.4l0.1,0.7
	l0.2,0.7l0.1,0.7l0.1,0.9l0.1,1.6l-0.1,1.6l-0.1,0.7l-0.1,0.7l-0.3,1.5l-0.3,0.7l-0.2,0.7l-0.3,0.6l-0.4,0.6L30.7,27l-0.4,0.5
	l-0.4,0.6l-1.1,1.1l-0.5,0.5l-0.5,0.5l-0.6,0.4l-0.5,0.4l-0.6,0.4l-0.7,0.3l-1.3,0.7l-1.5,0.5l-0.7,0.2l-0.7,0.1l-0.7,0.1l-0.7,0.1
	l-1.6,0.1l-1.6-0.1l-0.9-0.1l-0.7-0.1l-1.5-0.3l-0.7-0.3l-0.6-0.2l-0.7-0.3l-0.6-0.4L9,31.1l-0.6-0.4l-0.6-0.4l-1.1-1.1l-0.5-0.5
	l-0.4-0.5l-0.5-0.6L4.7,27l-0.4-0.6L4,25.6l-0.6-1.3l-0.5-1.5L2.6,22l-0.2-0.7l-0.1-0.7l-0.1-0.7L2.1,18.2L2.1,18.2z M26.5,19.2v2.1
	V24v2.2h-2.5h-5.2V24h5.2v-2.6h-2.8h-2.5v-2.2v-2.4v-2.4h2.5h2.8v-2.4h-5.2V9.8h5.2h2.5v2.2v2.4v2.4h-2.5h-2.8v2.4h5.2V19.2
	L26.5,19.2z M8.9,19.2v2.1V24v2.2h2.5h5.2V24h-5.2v-2.6h2.8h2.5v-2.2v-2.4v-2.4h-2.5h-2.8v-2.4h5.2V9.8h-5.2H8.9v2.2v2.4v2.4h2.5
	h2.8v2.4H8.9V19.2L8.9,19.2z"/>
</svg>
