<?xml version="1.0" encoding="utf-8"?>
<!-- Generator: Adobe Illustrator 19.0.0, SVG Export Plug-In . SVG Version: 6.00 Build 0)  -->
<svg version="1.1" id="图层_1" xmlns="http://www.w3.org/2000/svg" xmlns:xlink="http://www.w3.org/1999/xlink" x="0px" y="0px"
	 viewBox="0 0 36 36" style="enable-background:new 0 0 36 36;" xml:space="preserve">
<style type="text/css">
	.st0{fill:#FF3204;}
</style>
<path id="XMLID_2_" d="M21.7,23.7h-7.5c-0.4,0-0.7,0.3-0.7,0.7v7.1c0,0.4,0.3,0.7,0.7,0.7h7.5c0.4,0,0.7-0.3,0.7-0.7v-7.1
	C22.4,24,22.1,23.7,21.7,23.7z"/>
<path id="XMLID_1_" class="st0" d="M21.4,4.6c-0.3-0.5-0.7-0.8-1.3-0.8h-4.3c-0.5,0-1,0.3-1.3,0.8L0.9,30.9
	c-0.5,0.8-0.1,1.4,0.7,1.4H6c0.6,0,0.9-0.2,1.2-0.7L18,10.3l10.8,21.1c0.3,0.6,0.6,0.7,1.2,0.7h4.3c0.8,0,1.2-0.5,0.7-1.4L21.4,4.6z
	"/>
</svg>
