<?xml version="1.0" encoding="utf-8"?>
<!-- Generator: Adobe Illustrator 19.0.0, SVG Export Plug-In . SVG Version: 6.00 Build 0)  -->
<svg version="1.1" id="图层_1" xmlns="http://www.w3.org/2000/svg" xmlns:xlink="http://www.w3.org/1999/xlink" x="0px" y="0px"
	 viewBox="0 0 36 36" style="enable-background:new 0 0 36 36;" xml:space="preserve">
<style type="text/css">
	.st0{fill:#BE1D1F;}
	.st1{fill:#730E0C;}
	.st2{fill:#E7191B;}
</style>
<g id="XMLID_8_">
	<path id="XMLID_6_" class="st0" d="M18,14.8c-0.6-1.3-1.3-2.6-1.8-4c-1.1-2.5-1.9-5-2.8-7.6c-2.8,8.2-7.3,15.8-12.9,22.2
		c4-0.9,8.2-1.6,12.3-1.8C14.7,20.8,16.5,17.9,18,14.8L18,14.8z"/>
	<path id="XMLID_5_" class="st1" d="M18,23.5c-1.7,0-3.5,0.1-5.2,0.2c-2.3,3.4-4.9,6.7-7.7,9.7c4.1-0.8,8.5-1.2,12.9-1.2
		s8.7,0.4,12.9,1.2c-2.9-3-5.5-6.3-7.7-9.7C21.4,23.5,19.7,23.5,18,23.5L18,23.5z"/>
	<path id="XMLID_11_" class="st2" d="M0.5,25.5l4.6,7.9c2.9-3,5.5-6.3,7.7-9.7C8.7,24,4.6,24.5,0.5,25.5L0.5,25.5z M22.5,3.2
		c-0.8,2.6-1.7,5.1-2.8,7.6c-0.6,1.3-1.2,2.6-1.8,4c1.5,3.1,3.2,6,5.2,8.9c4.1,0.3,8.3,0.9,12.3,1.8C29.8,19.1,25.4,11.4,22.5,3.2
		L22.5,3.2z"/>
	<path id="XMLID_2_" class="st1" d="M18,14.8c0.6-1.3,1.3-2.6,1.8-4c1.1-2.5,1.9-5,2.8-7.6h-9.2c0.8,2.6,1.7,5.1,2.8,7.6
		C16.7,12.1,17.4,13.5,18,14.8L18,14.8z"/>
	<path id="XMLID_7_" class="st0" d="M30.9,33.4l4.6-7.9c-4-0.9-8.2-1.6-12.3-1.8C25.4,27.1,28,30.4,30.9,33.4L30.9,33.4z"/>
</g>
</svg>
