<?xml version="1.0" encoding="utf-8"?>
<!-- Generator: Adobe Illustrator 19.0.0, SVG Export Plug-In . SVG Version: 6.00 Build 0)  -->
<svg version="1.1" id="图层_1" xmlns="http://www.w3.org/2000/svg" xmlns:xlink="http://www.w3.org/1999/xlink" x="0px" y="0px"
	 viewBox="0 0 36 36" style="enable-background:new 0 0 36 36;" xml:space="preserve">
<style type="text/css">
	.st0{fill:#D21520;}
</style>
<path id="XMLID_4_" class="st0" d="M17.9,1.4C8.6,1.4,1,9.1,1,18.3s7.6,16.9,16.9,16.9s16.9-7.6,16.9-16.9S27.2,1.4,17.9,1.4
	L17.9,1.4z M17.9,30.6c-6.8,0-12.3-5.6-12.3-12.3S11.1,6,17.9,6c5.4,0,9.9,3.7,11.6,8.4h-3.2c-1.4-2.4-3-3.9-5.1-4.6
	c-5.6-2.1-12.1,1.3-12.7,7.8c-0.3,2.9,1,6.3,3.7,8.1c4.6,3.3,12.8,2.8,15-6.4h-5.8l-3.6,3.4l-4.5-4.7l4.4-4.3l3.9,3.6h8.5
	c0.1,0.5,0,0.4,0,0.8C30.2,25.1,24.6,30.6,17.9,30.6L17.9,30.6z"/>
</svg>
