<?xml version="1.0" encoding="utf-8"?>
<!-- Generator: Adobe Illustrator 19.0.0, SVG Export Plug-In . SVG Version: 6.00 Build 0)  -->
<svg version="1.1" id="图层_1" xmlns="http://www.w3.org/2000/svg" xmlns:xlink="http://www.w3.org/1999/xlink" x="0px" y="0px"
	 viewBox="0 0 36 36" style="enable-background:new 0 0 36 36;" xml:space="preserve">
<style type="text/css">
	.st0{fill-rule:evenodd;clip-rule:evenodd;fill:#003B8F;}
</style>
<path id="XMLID_2_" class="st0" d="M16.7,2.2c0,0,2.9-2.3,7.9-0.6c0,0,1.7,0.6,3.6,2.4l6,6.3l-3.2,3.2l-9.2-9.4
	C21.8,4.2,20.3,2.3,16.7,2.2L16.7,2.2z M30,14.7l-3.8,3.7c0,0-0.6,0.9-1.1,0.1l-7-6.8c0,0-0.6-0.8-1.1-0.1l-7,7.2c0,0-0.5,0.7,0.1,1
	l6.9,6.9c0,0,0.6,0.9,1.1,0.2l7.1-7.2c0,0,0.2-0.6,1.3-0.5h7.3c0,0,0.3,7.4-5.3,12c0,0-7.3,7.3-17.4,2.8c0,0-9.7-3.4-9.6-15.9
	c0,0,0.3-8.4,7.9-12.9c0,0,5.6-4.1,10-1.1L30,14.7L30,14.7z"/>
</svg>
