<?xml version="1.0" encoding="utf-8"?>
<!-- Generator: Adobe Illustrator 19.0.0, SVG Export Plug-In . SVG Version: 6.00 Build 0)  -->
<svg version="1.1" id="图层_1" xmlns="http://www.w3.org/2000/svg" xmlns:xlink="http://www.w3.org/1999/xlink" x="0px" y="0px"
	 viewBox="0 0 36 36" style="enable-background:new 0 0 36 36;" xml:space="preserve">
<style type="text/css">
	.st0{fill-rule:evenodd;clip-rule:evenodd;fill:#E50012;}
</style>
<path id="XMLID_2_" class="st0" d="M16.6,24.7l4.5-11.4l4.7,11.4H16.6L16.6,24.7z M7.2,24.7l4.5-11.4l4.7,11.4H7.2L7.2,24.7z
	 M30.6,22.1h3.5L34,22.8h-3L30.6,22.1L30.6,22.1z M29.9,20.5h4.5l-0.1,0.7h-4.1L29.9,20.5L29.9,20.5z M29.3,18.9h5.4l-0.1,0.7h-5
	L29.3,18.9L29.3,18.9z M28.6,17.3h6V18h-5.8L28.6,17.3L28.6,17.3z M27.9,15.7h6.6l0.1,0.7h-6.4L27.9,15.7L27.9,15.7z M27.2,14.1h7
	l0.2,0.7h-6.8L27.2,14.1L27.2,14.1z M18,1.4h0.7l0.7,0.1l0.7,0l0.7,0.1l0.7,0.1l0.7,0.2L22.7,2l0.7,0.2l0.3,0.1L24,2.5l0.6,0.3
	L25.2,3l0.6,0.3l0.6,0.3L27,4l0.5,0.4L28,4.7l0.5,0.4L29,5.5L29.5,6L30,6.4l0.5,0.5l0.4,0.5L31,7.7l0.2,0.3l0.4,0.5L32,9l0.3,0.5
	l0.3,0.6l0.3,0.6l0.3,0.6l0.2,0.6l0.2,0.6l0.2,0.6h-7.1L22.4,2.9l-4.6,11.6L13,3L4.5,24.9l3.9,4.8h19.7l3.6-5.2l-0.3-0.8h2.3
	l-0.2,0.6l-0.3,0.6l-0.3,0.6L32.6,26l-0.3,0.6L32,27.1l-0.4,0.5l-0.3,0.5l-0.4,0.5l-0.4,0.5L30,29.5L29.6,30l-0.5,0.4l-0.5,0.4
	l-0.5,0.4l-0.5,0.4l-0.5,0.3l-0.5,0.3l-0.5,0.3l-0.6,0.3l-0.6,0.3l-0.6,0.2l-0.6,0.2l-0.6,0.2L22.6,34l-0.7,0.2l-0.6,0.2l-0.6,0.1
	l-0.3,0l-0.3,0l-0.7,0.1l-0.7,0H18h-0.8l-0.8-0.1l-0.8-0.1l-0.8-0.2l-0.8-0.2l-0.8-0.2l-0.8-0.3l-0.8-0.3L10.8,33l-0.7-0.3l-0.3-0.2
	l-0.3-0.2l-0.7-0.4L8,31.4l-0.7-0.5l-0.3-0.3l-0.3-0.3l-0.3-0.3l-0.3-0.3l-0.6-0.6l-0.5-0.6l-0.2-0.3l-0.2-0.3l-0.5-0.6L4,27
	l-0.2-0.3l-0.2-0.3l-0.2-0.4L3,25.2l-0.3-0.8l-0.3-0.7l-0.3-0.8l-0.2-0.8l-0.1-0.4l-0.1-0.4l-0.1-0.4l-0.1-0.4l-0.1-0.8l0-0.9l0-0.4
	V18l0-0.8l0-0.8l0.1-0.8l0.2-0.8l0.2-0.8l0.2-0.8l0.3-0.8l0.3-0.8L3,10.8l0.4-0.7l0.2-0.3l0.2-0.3l0.4-0.7l0.5-0.7l0.5-0.7l0.3-0.3
	l0.3-0.3l0.3-0.3l0.3-0.3l0.6-0.6l0.6-0.5l0.3-0.2L8,4.7l0.7-0.5L9,4l0.3-0.2l0.3-0.2l0.3-0.2L10.8,3l0.7-0.3l0.8-0.3l0.8-0.2
	l0.8-0.2l0.4-0.1l0.4-0.1l0.4-0.1l0.4-0.1l0.8-0.1l0.8,0l0.4,0H18L18,1.4z"/>
</svg>
