<?xml version="1.0" encoding="utf-8"?>
<!-- Generator: Adobe Illustrator 19.0.0, SVG Export Plug-In . SVG Version: 6.00 Build 0)  -->
<svg version="1.1" id="图层_1" xmlns="http://www.w3.org/2000/svg" xmlns:xlink="http://www.w3.org/1999/xlink" x="0px" y="0px"
	 viewBox="0 0 36 36" style="enable-background:new 0 0 36 36;" xml:space="preserve">
<style type="text/css">
	.st0{fill-rule:evenodd;clip-rule:evenodd;fill:#1D2087;}
	.st1{fill-rule:evenodd;clip-rule:evenodd;fill:#5AA472;}
</style>
<path id="XMLID_5_" class="st0" d="M17.9,12.1l3.3,1.8L18,15.8l-3.3-1.7L17.9,12.1L17.9,12.1z M18,10l7.4,4.1l-3.3,2
	c0,0,8.2,0.9,11.3,4.8c0,0,4.5,6.5-6.1,9.8c0,0-20.5,5-26.2-6.4L6,24.2c0,0,3.7,7,11.6,6.2c0,0,13.9-0.5,11.5-8.1
	c0,0-2.8-5.1-12.3-5L11,13.9L18,10L18,10z"/>
<path id="XMLID_2_" class="st1" d="M14.2,23.6l3.4-1.7l3.3,2l-3.6,1.7L14.2,23.6L14.2,23.6z M18.9,6.2c5.2,0.6,13.7,2.2,15.9,8.4
	c-1.7-0.1-3.4-0.1-5.1-0.2c-1.5-8-19.8-9.9-22.9-2.1c-1.6,3.6,3.5,7.9,7.3,8c0.8,0,2.1-0.4,3.2,0l6.5,3.8l-6.8,3.7
	c-2.4-1.5-4.8-3-7.1-4.4c1.1-0.6,2.3-1.2,3.4-1.8c-5.5-0.8-13.1-4.1-11.9-9.2C3,5.8,13.7,5.6,18.9,6.2L18.9,6.2z"/>
</svg>
