<?xml version="1.0" encoding="utf-8"?>
<!-- Generator: Adobe Illustrator 19.0.0, SVG Export Plug-In . SVG Version: 6.00 Build 0)  -->
<svg version="1.1" id="图层_1" xmlns="http://www.w3.org/2000/svg" xmlns:xlink="http://www.w3.org/1999/xlink" x="0px" y="0px"
	 viewBox="0 0 36 36" style="enable-background:new 0 0 36 36;" xml:space="preserve">
<style type="text/css">
	.st0{fill:#2D5082;}
</style>
<path id="XMLID_9_" class="st0" d="M25.1,9.1c1.9,0.8,3.4,2.4,4.1,4.3c-0.5-0.1-1-0.2-1.5-0.2c-0.9,0-1.8,0.2-2.6,0.5L25.1,9.1
	L25.1,9.1z M25.1,26.9c0.8,0.3,1.7,0.5,2.6,0.5c3.9,0,7.1-3.2,7.1-7.1V8.5l-5.2-5.2v11.8h0c0,0.2,0,0.3,0,0.5v0c0,3-1.9,5.6-4.5,6.6
	L25.1,26.9L25.1,26.9z M20.6,20.3L20.6,20.3c0,3.9-3.2,7.1-7.1,7.1c-0.9,0-1.8-0.2-2.6-0.5v-4.7c2.6-1,4.5-3.6,4.5-6.6v0
	c0-3.9,3.2-7.1,7.1-7.1c0.9,0,1.8,0.2,2.6,0.5v4.7C22.5,14.8,20.6,17.3,20.6,20.3L20.6,20.3L20.6,20.3z M25.1,22.3
	c-0.8,0.3-1.7,0.5-2.6,0.5c-0.5,0-1-0.1-1.5-0.2c0.7,2,2.2,3.6,4.1,4.3L25.1,22.3L25.1,22.3z M10.9,13.7c0.8-0.3,1.7-0.5,2.6-0.5
	c0.5,0,1,0,1.5,0.2c-0.7-2-2.2-3.6-4.1-4.4L10.9,13.7L10.9,13.7z M10.9,26.9c-1.9-0.8-3.4-2.4-4.1-4.3c0.5,0.1,1,0.2,1.5,0.2
	c0.9,0,1.8-0.2,2.6-0.5V26.9z M10.9,9.1c-0.8-0.3-1.7-0.5-2.6-0.5c-3.9,0-7.1,3.2-7.1,7.1v11.8l5.2,5.2V20.9h0c0-0.2,0-0.3,0-0.5v0
	c0-3,1.8-5.5,4.5-6.6L10.9,9.1L10.9,9.1z"/>
</svg>
