<?xml version="1.0" encoding="utf-8"?>
<!-- Generator: Adobe Illustrator 19.0.0, SVG Export Plug-In . SVG Version: 6.00 Build 0)  -->
<svg version="1.1" id="图层_1" xmlns="http://www.w3.org/2000/svg" xmlns:xlink="http://www.w3.org/1999/xlink" x="0px" y="0px"
	 viewBox="0 0 36 36" style="enable-background:new 0 0 36 36;" xml:space="preserve">
<style type="text/css">
	.st0{fill-rule:evenodd;clip-rule:evenodd;fill:#009040;}
</style>
<path id="XMLID_2_" class="st0" d="M14.4,19.5h3.2l-0.3,1.9h-2.9v3h4l1.4-7.6h-5.4V19.5L14.4,19.5L14.4,19.5L14.4,19.5z M14.4,33.7
	v-3h7.7l1.7-9.2h6.8l-0.6,3H25l-1.8,9.2H14.4L14.4,33.7L14.4,33.7L14.4,33.7z M14.4,29.1v-3h5.4l1.8-9.3h9.8l-0.6,2.9h-8.3l-1.8,9.5
	H14.4L14.4,29.1L14.4,29.1L14.4,29.1z M14.4,15v-3h8l0.8-4.6h10l-0.6,3h-8.4L23.4,15H14.4L14.4,15L14.4,15L14.4,15z M14.4,10.3h6.6
	l0.8-4.5h11.6l0.6-3L20.8,3L20,7.4h-5.5V10.3L14.4,10.3L14.4,10.3z M11.2,21.4L11.2,21.4L11.2,21.4h3.3v3h-3.8l-0.3,1.7h4.2v3H9.7
	l-0.3,1.6h5v3H7.2L9,24.2H6.7v-2.9h2.8l0.3-1.9H6.7v-2.9h3.7l1.7-9.2h2.4v2.9h-1.2L12.9,12h1.6v3h-2.1L12,16.8h2.4v2.7h-2.9
	L11.2,21.4L11.2,21.4z M6.7,16.6L6.7,16.6H3.1l-1.4,7.6l0,0h5v-2.9h-3l0,0l0.4-1.9h2.6V16.6z"/>
</svg>
